<?xml version="1.0" standalone="no"?>
<!DOCTYPE svg PUBLIC "-//W3C//DTD SVG 20010904//EN"
 "http://www.w3.org/TR/2001/REC-SVG-20010904/DTD/svg10.dtd">
<svg version="1.0" xmlns="http://www.w3.org/2000/svg"
 width="720.000000pt" height="720.000000pt" viewBox="0 0 720.000000 720.000000"
 preserveAspectRatio="xMidYMid meet">
<metadata>
Created by potrace 1.14, written by Peter Selinger 2001-2017
</metadata>
<g transform="translate(0.000000,720.000000) scale(0.100000,-0.100000)"
fill="#000000" stroke="none">
<path d="M1554 6174 c-72 -35 -390 -335 -551 -519 -273 -311 -515 -741 -632
-1121 -114 -373 -161 -666 -161 -1005 0 -512 89 -884 321 -1339 192 -376 380
-617 762 -973 86 -81 175 -156 197 -167 87 -45 202 -15 247 65 53 93 27 136
-172 293 -195 152 -507 497 -637 702 -203 322 -341 729 -384 1130 -17 165 -15
529 4 640 6 30 15 89 22 130 44 277 156 613 287 860 207 390 457 696 830 1018
99 85 118 172 53 239 -59 60 -126 77 -186 47z"/>
<path d="M5555 6183 c-31 -8 -83 -51 -100 -83 -41 -79 -1 -177 106 -259 210
-163 481 -463 641 -711 251 -388 406 -813 463 -1270 48 -389 20 -718 -90
-1088 -131 -435 -341 -784 -690 -1141 -121 -125 -226 -218 -336 -301 -93 -70
-119 -143 -79 -225 17 -36 33 -52 64 -66 53 -24 143 -25 176 -2 41 28 259 220
358 317 377 366 669 837 802 1292 215 735 164 1461 -155 2195 -54 124 -190
370 -289 523 -57 87 -224 308 -255 336 -4 3 -37 39 -76 79 -82 87 -243 242
-333 321 -90 79 -140 99 -207 83z"/>
<path d="M3485 5969 c-311 -37 -591 -176 -794 -395 -120 -128 -193 -265 -240
-450 -33 -131 -40 -206 -42 -472 l-3 -252 -27 0 c-15 0 -65 -19 -111 -42 -210
-108 -377 -361 -422 -641 -14 -82 -16 -215 -16 -854 0 -479 4 -782 11 -822 34
-210 174 -456 325 -569 82 -62 217 -133 304 -161 115 -38 264 -43 1220 -38
995 4 960 2 1127 67 284 109 486 346 549 639 20 98 20 1583 0 1721 -33 217
-130 429 -244 532 -51 46 -140 103 -218 140 l-61 28 -7 253 c-3 138 -13 286
-20 328 -37 206 -120 390 -244 542 -96 118 -261 250 -398 320 -70 36 -239 93
-326 111 -97 20 -264 27 -363 15z m374 -393 c285 -80 517 -297 597 -561 26
-85 28 -104 32 -324 l4 -234 -69 6 c-37 4 -428 7 -869 7 l-801 0 -7 148 c-15
322 48 535 209 710 116 125 298 228 470 266 108 24 313 15 434 -18z m802
-1460 c93 -20 163 -58 237 -130 82 -79 107 -122 137 -241 l25 -98 0 -766 c0
-741 -1 -770 -20 -845 -30 -113 -64 -172 -144 -251 -87 -85 -204 -148 -311
-166 -84 -14 -1855 -13 -1954 1 -105 15 -252 96 -327 182 -45 51 -89 132 -121
223 l-28 80 0 785 0 785 28 88 c35 113 55 151 111 213 46 52 122 98 211 130
79 28 294 33 1230 28 687 -4 873 -7 926 -18z"/>
<path d="M2496 3880 c-38 -12 -95 -66 -112 -108 -27 -61 10 -135 79 -161 99
-38 237 39 237 131 0 91 -112 167 -204 138z"/>
<path d="M4594 3861 c-47 -29 -64 -59 -64 -114 0 -57 21 -97 62 -121 52 -31
85 -36 137 -20 98 29 140 122 91 201 -40 67 -159 95 -226 54z"/>
<path d="M3427 3800 c-300 -48 -538 -171 -791 -411 -96 -90 -116 -125 -116
-201 0 -72 25 -117 82 -146 71 -37 109 -22 227 91 132 126 217 188 346 251
156 77 223 91 425 91 141 0 176 -4 245 -23 186 -54 367 -163 520 -315 55 -55
111 -104 125 -109 35 -13 115 0 146 25 53 41 78 138 53 204 -22 59 -222 238
-376 336 -140 89 -276 148 -438 188 -92 23 -352 34 -448 19z"/>
<path d="M3435 3216 c-125 -25 -240 -78 -370 -171 -177 -126 -224 -207 -179
-313 32 -77 92 -113 163 -97 17 4 65 38 112 80 86 78 178 133 268 159 68 20
255 21 327 2 92 -24 192 -85 268 -162 39 -40 84 -77 99 -83 103 -40 207 34
207 147 0 75 -18 108 -101 188 -109 104 -303 209 -444 241 -93 20 -269 25
-350 9z"/>
<path d="M3479 2609 c-87 -28 -156 -80 -188 -144 -21 -40 -27 -67 -29 -140 -4
-109 16 -174 84 -264 51 -68 108 -101 211 -122 157 -32 305 63 375 240 16 42
22 78 22 146 1 82 -2 95 -28 143 -34 60 -81 102 -153 134 -71 32 -206 35 -294
7z m164 -250 c78 -40 90 -99 30 -148 -77 -63 -173 -29 -173 61 0 74 77 121
143 87z"/>
<path d="M2453 2185 c-41 -17 -63 -61 -63 -124 0 -112 112 -160 232 -99 53 26
72 58 65 114 -5 51 -34 89 -84 110 -41 18 -109 17 -150 -1z"/>
<path d="M4635 2181 c-95 -23 -145 -104 -112 -184 20 -46 66 -71 132 -70 58 0
97 18 140 63 55 58 32 144 -48 181 -44 20 -64 21 -112 10z"/>
<path d="M1928 5590 c-52 -16 -125 -76 -283 -235 -247 -247 -355 -397 -495
-680 -110 -223 -211 -533 -241 -740 -67 -463 -48 -780 67 -1140 66 -206 208
-490 330 -661 49 -69 77 -84 160 -84 46 0 59 5 89 31 45 40 65 78 65 124 0 45
-17 78 -91 181 -77 105 -198 359 -243 507 -56 185 -77 324 -83 554 -8 290 24
512 112 779 129 393 404 801 699 1038 93 75 119 116 119 182 0 60 -33 107 -92
133 -53 22 -70 24 -113 11z"/>
<path d="M5187 5586 c-69 -25 -117 -86 -117 -147 0 -58 36 -114 113 -175 104
-83 282 -264 365 -372 236 -307 396 -692 447 -1075 20 -155 20 -468 0 -613
-43 -306 -136 -544 -322 -823 -109 -164 -118 -191 -81 -261 46 -85 125 -111
214 -71 74 33 168 168 295 421 113 228 190 484 228 765 46 329 6 700 -113
1058 -156 470 -337 762 -683 1098 -199 193 -259 227 -346 195z"/>
</g>
</svg>
